<svg xmlns="http://www.w3.org/2000/svg" xmlns:xlink="http://www.w3.org/1999/xlink" width="397.22" height="229.498" viewBox="0 0 397.22 229.498"><defs><style>.a{fill:#f5f5f5;}.b{fill:url(#a);}.c{fill:#ff5252;}.d{fill:#ff0;}.e{fill:#69f0ae;}.f{fill:url(#b);}.g,.j{fill:#bb293d;}.h{fill:url(#c);}.i{fill:#ff9800;}.j{opacity:0.4;}.k{fill:url(#d);}.l{fill:url(#e);}.m{fill:url(#f);}.n{fill:url(#g);}.o{fill:#fff;}.p{fill:url(#l);}.q{opacity:0.2;}</style><linearGradient id="a" x1="0.536" y1="0.879" x2="0.536" y2="0.113" gradientUnits="objectBoundingBox"><stop offset="0" stop-color="gray" stop-opacity="0.251"/><stop offset="0.54" stop-color="gray" stop-opacity="0.122"/><stop offset="1" stop-color="gray" stop-opacity="0.102"/></linearGradient><linearGradient id="b" x1="0.527" y1="0.642" x2="0.527" y2="0.348" xlink:href="#a"/><linearGradient id="c" x1="1.343" y1="1.571" x2="1.343" y2="0.718" xlink:href="#a"/><linearGradient id="d" x1="0.474" y1="0.977" x2="0.474" y2="-0.023" xlink:href="#a"/><linearGradient id="e" x1="0.502" y1="0.908" x2="0.502" y2="-0.092" xlink:href="#a"/><linearGradient id="f" x1="-0.447" y1="-0.584" x2="-0.447" y2="-1.584" xlink:href="#a"/><linearGradient id="g" x1="0.5" y1="1" x2="0.5" y2="0" xlink:href="#a"/><linearGradient id="l" x1="0.5" y1="1" x2="0.5" y2="0.001" xlink:href="#a"/></defs><g transform="translate(0.005 0.003)"><rect class="a" width="8.817" height="208.622" transform="translate(184.476 30.312) rotate(-81.36)"/><rect class="b" width="166.752" height="217.439" transform="translate(157.193 182.945) rotate(-81.36)"/><rect class="a" width="152.059" height="208.622" transform="translate(161.627 180.644) rotate(-81.36)"/><circle class="c" cx="2.155" cy="2.155" r="2.155" transform="translate(187.719 28.525) rotate(-81.36)"/><circle class="d" cx="2.155" cy="2.155" r="2.155" transform="translate(193.578 29.413) rotate(-81.36)"/><circle class="e" cx="2.155" cy="2.155" r="2.155" transform="translate(199.437 30.305) rotate(-81.36)"/><rect class="f" width="55.095" height="187.321" transform="translate(182.871 99.542) rotate(-81.36)"/><rect class="g" width="183.281" height="51.055" transform="translate(193.004 47.582) rotate(8.64)"/><rect class="h" width="10.653" height="12.489" transform="translate(209.663 135.931) rotate(-81.36)"/><rect class="g" width="11.752" height="8.817" transform="translate(211.708 126.209) rotate(8.64)"/><rect class="c" width="11.752" height="8.817" transform="translate(209.439 141.097) rotate(8.64)"/><rect class="i" width="11.752" height="8.817" transform="translate(207.18 155.987) rotate(8.64)"/><rect class="j" width="94.76" height="5.14" transform="translate(242.295 132.714) rotate(8.64)"/><rect class="j" width="94.76" height="5.14" transform="translate(240.031 147.603) rotate(8.64)"/><rect class="j" width="94.76" height="5.14" transform="translate(237.771 162.493) rotate(8.64)"/><rect class="a" width="222.117" height="8.675" transform="translate(4.825 52.381) rotate(-12.6)"/><rect class="k" width="231.502" height="164.091" transform="translate(-0.005 50.497) rotate(-12.6)"/><rect class="a" width="222.117" height="149.633" transform="translate(6.716 60.852) rotate(-12.6)"/><ellipse class="c" cx="2.293" cy="2.12" rx="2.293" ry="2.12" transform="translate(8.363 53.862) rotate(-12.6)"/><ellipse class="d" cx="2.293" cy="2.12" rx="2.293" ry="2.12" transform="translate(14.523 52.489) rotate(-12.6)"/><ellipse class="e" cx="2.293" cy="2.12" rx="2.293" ry="2.12" transform="translate(20.678 51.113) rotate(-12.6)"/><rect class="l" width="199.437" height="54.217" transform="translate(18.792 71.855) rotate(-12.6)"/><rect class="g" width="195.136" height="50.239" transform="translate(21.556 73.458) rotate(-12.6)"/><rect class="m" width="13.296" height="10.48" transform="translate(68.398 137.799) rotate(-12.6)"/><rect class="g" width="12.57" height="8.713" transform="translate(70.097 139.023) rotate(-12.653)"/><rect class="c" width="12.515" height="8.675" transform="translate(72.361 152.838) rotate(-12.6)"/><rect class="i" width="12.57" height="8.713" transform="translate(76.646 168.053) rotate(-12.653)"/><rect class="j" width="100.89" height="5.06" transform="translate(101.959 132.887) rotate(-12.6)"/><rect class="j" width="100.89" height="5.06" transform="translate(105.191 147.351) rotate(-12.6)"/><rect class="j" width="100.89" height="5.06" transform="translate(108.424 161.811) rotate(-12.6)"/><rect class="a" width="251.902" height="10.644" transform="translate(75.422 8.194)"/><rect class="n" width="262.546" height="201.344" transform="translate(70.543 4.646)"/><rect class="o" width="251.902" height="183.605" transform="translate(75.422 18.838)"/><circle class="c" cx="2.603" cy="2.603" r="2.603" transform="translate(78.969 10.913)"/><circle class="d" cx="2.603" cy="2.603" r="2.603" transform="translate(86.123 10.913)"/><circle class="e" cx="2.603" cy="2.603" r="2.603" transform="translate(93.276 10.913)"/><rect class="n" width="226.18" height="66.523" transform="translate(86.065 35.247)"/><rect class="g" width="221.301" height="61.645" transform="translate(88.726 37.908)"/><rect class="n" width="15.079" height="12.861" transform="translate(124.649 127.493)"/><rect class="g" width="14.192" height="10.644" transform="translate(125.314 128.38)"/><rect class="c" width="14.192" height="10.644" transform="translate(125.314 146.563)"/><rect class="i" width="14.192" height="10.644" transform="translate(125.314 164.746)"/><rect class="j" width="114.42" height="6.209" transform="translate(163.011 130.597)"/><rect class="j" width="114.42" height="6.209" transform="translate(163.011 148.781)"/><rect class="j" width="114.42" height="6.209" transform="translate(163.011 166.964)"/><rect class="n" width="82.489" height="67.854" transform="translate(161.459 161.642)"/><path class="n" d="M551.033,494.307a23.1,23.1,0,0,1,46.2,0v14.782H603.7V494.307a29.566,29.566,0,1,0-59.133,0l0,14.782h6.466Z" transform="translate(-370.54 -343.456)"/><path class="o" d="M553.439,495.123a22.174,22.174,0,1,1,44.349,0v14.192H604V495.123a28.383,28.383,0,1,0-56.767,0v14.192h6.209Z" transform="translate(-372.023 -344.569)"/><rect class="g" width="77.167" height="62.976" transform="translate(165.007 163.859)"/><rect class="o" width="77.167" height="62.976" transform="translate(165.007 163.859)"/><rect class="g" width="77.167" height="38.14" transform="translate(165.007 176.277)"/><path class="p" d="M609.8,608.365a5.659,5.659,0,1,0-9.757,3.876v12.072a4.116,4.116,0,0,0,8.231,0V612.241A5.633,5.633,0,0,0,609.8,608.365Z" transform="translate(-400.544 -420.22)"/><path class="q" d="M609.987,611.607a4.878,4.878,0,1,0-8.426,3.339v10.409a3.548,3.548,0,1,0,7.1,0V614.946A4.878,4.878,0,0,0,609.987,611.607Z" transform="translate(-401.518 -422.469)"/></g></svg>