<svg xmlns="http://www.w3.org/2000/svg" width="283.67" height="228.711" viewBox="0 0 283.67 228.711"><defs><style>.a{fill:#e6e6e6;}.b{fill:#3f3d56;}.c{fill:#bb293d;}.d{fill:#2f2e41;}.e{fill:#ccc;}</style></defs><g transform="translate(0 0)"><path class="a" d="M554.359,669.97a13.332,13.332,0,0,0-7.955-5.509,38.748,38.748,0,0,0-8.863-.521l-37.415.289c-3.2.025-6.277,2.8-6.128,6.128a6.231,6.231,0,0,0,6.128,6.128l32.88-.254c2.584-.02,5.169-.067,7.753-.058.58,0,1.158.032,1.738.039.14,0,.242,0,.313,0l.056.017c.3.083.613.14.917.219-.107,0,.2.193.35.257.021.041.066.115.14.228.1.2.413.788.425.77a27.474,27.474,0,0,1,1.144,3.6,20.146,20.146,0,0,1,.971,5.8c.13,3.2,2.726,6.28,6.128,6.128,3.209-.144,6.267-2.7,6.128-6.128C558.836,681.312,557.821,674.818,554.359,669.97Z" transform="translate(-392.757 -467.635)"/><path class="a" d="M446.812,542.812c-.7-4.259-1.392-8.52-2.109-12.776-.727-4.318-2.212-8.272-5.572-11.106-.9-.757-1.829-1.464-2.764-2.169-.329-.248-.657-.5-.982-.749l-.049-.038-.136-.116c-1.4-1.185-2.754-2.423-4.043-3.739q-1.717-1.753-3.284-3.656-.392-.475-.773-.959l-.435-.559c-.144-.2-.408-.558-.453-.621q-.446-.63-.876-1.272a59.793,59.793,0,0,1-5.05-9.236q-.21-.479-.409-.964l-.143-.394c-.284-.781-.567-1.56-.827-2.35q-.827-2.517-1.422-5.108-.294-1.279-.53-2.572-.121-.665-.227-1.332c-.012-.074-.08-.554-.121-.825s-.086-.755-.093-.83q-.067-.673-.119-1.347-.118-1.517-.159-3.038-.071-2.7.1-5.408c.064-1.013.154-2.023.266-3.031l.017-.156c.007-.045.015-.1.024-.16.082-.557.169-1.114.266-1.668a61.011,61.011,0,0,1,1.432-6.248q.417-1.459.9-2.894.218-.637.449-1.269c-.01.027.453-1.155.459-1.195,1.836-4.339,4.84-8.294,4.844-13.223,0-3.337-2.82-6.534-6.128-6.38a6.367,6.367,0,0,0-6.128,6.38c0,.075,0,.139,0,.2l-.08.267c-.358.778-.8,1.518-1.19,2.277-1.076,2.077-2,4.222-2.868,6.4a61.21,61.21,0,0,0-3.267,10.964,69.741,69.741,0,0,0-.371,24.91,64.28,64.28,0,0,0,21.1,37.663c.945.809,1.914,1.59,2.891,2.356.4.317.812.628,1.222.937.194.146,1,.779.643.472A3.9,3.9,0,0,1,432.1,529.7l.119.464c.137.538.268,1.075.376,1.621.948,4.769,1.607,9.617,2.4,14.417.544,3.3,4.6,5.444,7.538,4.456C445.947,549.51,447.395,546.346,446.812,542.812Z" transform="translate(-337.244 -326.649)"/><path class="b" d="M490.573,500.164a9.718,9.718,0,0,1-9.743-9.671V483.5c-7.319.819-32.379.629-39.563-.525v7.235a9.743,9.743,0,1,1-19.487,0V476.008A62.5,62.5,0,0,1,447.549,359.16c1.7-.133,3.4-.2,5.07-.2,5.88,0,32.408.908,39.064,2.823l15.177-15.06a1.593,1.593,0,0,1,1.743-.347,1.57,1.57,0,0,1,.99,1.473v2.395l2.955-2.927a1.59,1.59,0,0,1,1.741-.348,1.571,1.571,0,0,1,.991,1.474V375.2a62.335,62.335,0,0,1-14.964,102.59v12.7A9.718,9.718,0,0,1,490.573,500.164ZM481.6,482.635v7.859a8.977,8.977,0,1,0,17.955,0V477.306l.219-.1a62.218,62.218,0,0,0,25.48-22.283,61.4,61.4,0,0,0-10.609-79.263l-.127-.114v-27.1a.806.806,0,0,0-.514-.764.823.823,0,0,0-.912.181l-4.262,4.221v-4.231a.806.806,0,0,0-.514-.764.825.825,0,0,0-.914.183l-15.5,15.382-.22-.069c-6.188-1.937-33.133-2.855-39.058-2.855-1.649,0-3.335.067-5.01.2a62.073,62.073,0,0,0-33.794,13.307,61.463,61.463,0,0,0,8.534,102.216l.2.109v14.657a8.977,8.977,0,1,0,17.955,0v-8.152l.454.085c6.456,1.215,33.639,1.406,40.208.544Z" transform="translate(-328.352 -271.631)"/><path class="c" d="M443.229,270.357,400.817,283.1a5.317,5.317,0,0,0,3.06,10.184l37.115-11.156.778-.234a25.858,25.858,0,0,1,3.175-11.436,2.361,2.361,0,0,0-.766-.2A2.438,2.438,0,0,0,443.229,270.357Z" transform="translate(-332.93 -224.737)"/><path class="d" d="M404.406,297.53a2.686,2.686,0,0,1-2.542-1.839l-2.652-8a2.681,2.681,0,0,1,1.7-3.388l34.519-11.44a2.681,2.681,0,0,1,3.388,1.7l2.652,8a2.672,2.672,0,0,1-1.606,3.355l-.1.034-34.518,11.44a2.682,2.682,0,0,1-.846.138Z" transform="translate(-334.192 -226.263)"/><path class="b" d="M538.6,233.42a26.821,26.821,0,0,0-26.8,25.986c-.008.272-.011.548-.011.823A26.809,26.809,0,1,0,538.6,233.42Zm0,52.852a26.07,26.07,0,0,1-26.043-26.043q0-.534.023-1.057a26.042,26.042,0,1,1,26.02,27.1Z" transform="translate(-403.738 -202.012)"/><path class="a" d="M567.983,267.016a22.6,22.6,0,0,1-45.193,0c0-.716.034-1.421.1-2.118a22.6,22.6,0,0,1,45.093,2.118Z" transform="translate(-410.525 -208.798)"/><path class="c" d="M576.3,283.369a5.38,5.38,0,0,0-2.095-1.658,20.356,20.356,0,0,0-3.148-1.034v-6.151a8.96,8.96,0,0,1,4.477,2.041l1.249-2.662a8.258,8.258,0,0,0-2.436-1.505,11.972,11.972,0,0,0-3.091-.793V268.49h-2.892v3.148a7.917,7.917,0,0,0-3.16,1.061,6.281,6.281,0,0,0-2.141,2.1,5.274,5.274,0,0,0-.762,2.792,4.773,4.773,0,0,0,.877,2.987,5.557,5.557,0,0,0,2.183,1.731,20.173,20.173,0,0,0,3.2,1.061v5.894a9.57,9.57,0,0,1-5.327-2.126L561.99,289.8a9.415,9.415,0,0,0,2.849,1.616,13.085,13.085,0,0,0,3.527.735v3.091h2.892V292.1a7.483,7.483,0,0,0,4.293-1.969,5.2,5.2,0,0,0,1.6-3.868A4.617,4.617,0,0,0,576.3,283.369Zm-7.736-3.344a5.552,5.552,0,0,1-1.927-1.034,2.038,2.038,0,0,1-.682-1.6,2.576,2.576,0,0,1,.7-1.842,3.525,3.525,0,0,1,1.911-.992Zm4.309,8.15a3.277,3.277,0,0,1-1.815.946v-5.071a5.071,5.071,0,0,1,1.815.908,1.784,1.784,0,0,1,.624,1.417,2.6,2.6,0,0,1-.624,1.8Z" transform="translate(-434.712 -223.651)"/><path class="d" d="M409.559,385.351a2.69,2.69,0,0,1-2.595-2l-1.444-5.465a2.682,2.682,0,0,1,1.905-3.275l45.553-12.037a2.687,2.687,0,0,1,3.275,1.909l1.223,4.63-.229.018a61.341,61.341,0,0,0-32.212,12.206l-.066.032-14.73,3.891A2.668,2.668,0,0,1,409.559,385.351Z" transform="translate(-338.114 -281.649)"/><path class="b" d="M351.159,441.117a37.574,37.574,0,0,1-14.983-5.665,36.59,36.59,0,0,1-6.194-5.066,19,19,0,0,1-4.534-6.541,9.689,9.689,0,0,1,.127-7.188,9.32,9.32,0,0,1,5.044-5.027,9.622,9.622,0,0,1,7.3-.011,6.545,6.545,0,0,1,2.667,2.147,4.38,4.38,0,0,1,.693,1.439,2.939,2.939,0,0,1,.035,1.44,3.453,3.453,0,0,1-1.828,2.192,9.217,9.217,0,0,1-3.122.952c-1.1.149-2.669.285-3.55-.594a1.788,1.788,0,0,1-.418-.617,1.193,1.193,0,0,1-.066-.558c-.013.083.053-.181.049-.17-.014.039-.074.134.012-.012a1.3,1.3,0,0,1,.089-.139c-.029.038-.093.1.021-.007a.752.752,0,0,1,.35-.216c.053-.015.107-.028.16-.042.135-.037-.135,0,0,0,.053,0,.107,0,.16,0,.136-.006-.134-.037,0,0,.05.013.1.025.15.041.108.034-.076-.079,0,.006s-.09-.1.007,0a1.765,1.765,0,0,1,.137.151.9.9,0,0,0,1.27,0,.919.919,0,0,0,0-1.27,2.433,2.433,0,0,0-3.529.1,2.919,2.919,0,0,0,.421,4.09,5.652,5.652,0,0,0,4.656,1.054,11.42,11.42,0,0,0,3.933-1.111,5.515,5.515,0,0,0,2.69-2.906,5.045,5.045,0,0,0-.4-4.124,8.9,8.9,0,0,0-7.309-4.3,11.418,11.418,0,0,0-8.356,2.743,11.549,11.549,0,0,0-3.787,7.689,13.168,13.168,0,0,0,2.665,8.508,32.41,32.41,0,0,0,6.426,6.646,39.245,39.245,0,0,0,16.4,7.733q1.069.221,2.15.378a.927.927,0,0,0,1.1-.627.9.9,0,0,0-.627-1.1Z" transform="translate(-287.258 -310.419)"/><path class="e" d="M574.185,390.746q-11.744-.166-23.413.6c-2.659.174-4.96,1.114-4.96,2.693,0,1.321,2.282,2.868,4.96,2.693q11.664-.762,23.413-.6C580.57,396.223,580.567,390.836,574.185,390.746Z" transform="translate(-424.73 -299.066)"/><path class="b" d="M556.3,395.214c-.846,0-20.722-.032-20.722-2.777s19.876-2.777,20.722-2.777,20.722.032,20.722,2.777S557.144,395.214,556.3,395.214Zm-19.945-2.777c.544.832,7.85,2.011,19.945,2.011s19.4-1.179,19.945-2.011c-.544-.832-7.85-2.011-19.945-2.011s-19.4,1.179-19.945,2.011Z" transform="translate(-418.415 -298.414)"/><path class="b" d="M754.216,519.611c4.4-.122,9.876-.275,14.094-3.357a10.824,10.824,0,0,0,4.259-8.082,7.281,7.281,0,0,0-2.476-5.98c-2.2-1.862-5.421-2.3-8.888-1.28l3.592-26.253-2.637-.361-4.223,30.864,2.2-1.011c2.553-1.171,6.058-1.767,8.236.073a4.678,4.678,0,0,1,1.534,3.854,8.181,8.181,0,0,1-3.169,6.026c-3.283,2.4-7.648,2.707-12.6,2.846Z" transform="translate(-553.272 -350.637)"/><rect class="b" width="14.336" height="2.662" transform="translate(179.316 126.287)"/><path class="d" d="M427.426,424.765a2.686,2.686,0,0,1-2.644-2.266l-.875-5.585a2.684,2.684,0,0,1,2.234-3.064l46.545-7.293a2.684,2.684,0,0,1,3.064,2.234l.875,5.585a2.684,2.684,0,0,1-2.234,3.064l-46.545,7.293a2.72,2.72,0,0,1-.419.033Z" transform="translate(-349.494 -308.82)"/><ellipse class="c" cx="19.532" cy="19.532" rx="19.532" ry="19.532" transform="translate(39.137 11.434)"/><path class="d" d="M407.975,224.989a4.633,4.633,0,0,0,1.672-1.025,3.115,3.115,0,0,0,.864-2.483,2.1,2.1,0,0,0-.962-1.595,2.71,2.71,0,0,0-2.584.019l-.109-7.625-.766.011.128,8.963.583-.382a2.32,2.32,0,0,1,2.346-.334,1.346,1.346,0,0,1,.6,1.03,2.354,2.354,0,0,1-.642,1.851,6.332,6.332,0,0,1-3.462,1.352l.136.754a12.625,12.625,0,0,0,2.193-.537Z" transform="translate(-338.246 -188.969)"/><rect class="d" width="4.125" height="0.766" transform="matrix(0.989, -0.15, 0.15, 0.989, 72.419, 23.394)"/><rect class="d" width="4.125" height="0.766" transform="matrix(0.989, -0.15, 0.15, 0.989, 59.544, 25.344)"/><path class="d" d="M387.844,347.7a3.459,3.459,0,0,1-3.23-2.242l-13.467-36.066a17.821,17.821,0,0,1,10.45-22.9l10.95-4.089a3.431,3.431,0,0,1,2.634.091,3.382,3.382,0,0,1,1.791,1.91l24.947,47.1a3.447,3.447,0,0,1-2.013,4.457l-30.856,11.522A3.437,3.437,0,0,1,387.844,347.7Z" transform="translate(-316.266 -232.099)"/><path class="a" d="M420.158,283.265l24.752,33.1-16.748-32.753a3.094,3.094,0,0,0-3.964-1.856Z" transform="translate(-347.2 -231.721)"/><path class="c" d="M443.276,329.934l-44.195-2.847a5.316,5.316,0,1,1,.683-10.609l44.195,2.847a2.489,2.489,0,0,1,2.324,2.644l-.363,5.641a2.49,2.49,0,0,1-2.644,2.324Z" transform="translate(-331.127 -253.252)"/><path class="d" d="M428.865,328.468q-.088,0-.176-.006h0L392.4,326.125a2.681,2.681,0,0,1-2.5-2.848l.621-9.635a2.681,2.681,0,0,1,2.848-2.5l36.29,2.337a2.684,2.684,0,0,1,2.5,2.848l-.62,9.635a2.688,2.688,0,0,1-1.741,2.34A2.653,2.653,0,0,1,428.865,328.468Z" transform="translate(-328.525 -249.962)"/><path class="d" d="M345.69,169.39c2.57-2.21,6.1-.233,9.045-.579a6.984,6.984,0,0,0,5.614-5.547c.663-3.134-.963-6.275-3.361-8.229a12.447,12.447,0,0,0-9.41-2.359,23.531,23.531,0,0,0-10.347,4.35,46.667,46.667,0,0,0-8.212,6.959,17.954,17.954,0,0,0-4.665,8.606,11.807,11.807,0,0,0,1.631,8.792,9.27,9.27,0,0,0,3.629,2.989c1.508.74,3.117,1.27,4.578,2.107,2.209,1.266,4.356,3.891,3.664,6.622a3.751,3.751,0,0,1-.853,1.6c-.494.549-1.386-.176-.89-.727a3.162,3.162,0,0,0,.372-3.409,6.232,6.232,0,0,0-2.77-3.046c-1.529-.874-3.218-1.414-4.785-2.21a10.349,10.349,0,0,1-3.8-3.146,12.8,12.8,0,0,1-2.012-9.138,18.1,18.1,0,0,1,4.393-9.069,45.228,45.228,0,0,1,8.293-7.338,26.7,26.7,0,0,1,10.666-4.941,14.3,14.3,0,0,1,10.05,1.617,10.564,10.564,0,0,1,5.111,8.022,8.516,8.516,0,0,1-3.974,7.638,7.315,7.315,0,0,1-4.37,1.012,33.375,33.375,0,0,0-4.908-.466,3.424,3.424,0,0,0-2.018.815c-.561.483-1.23-.452-.674-.931Z" transform="translate(-287.244 -151.412)"/><path class="b" d="M512.877,747.119H230.118a.456.456,0,1,1,0-.912H512.877a.456.456,0,0,1,0,.912Z" transform="translate(-229.662 -518.407)"/></g></svg>