<svg xmlns="http://www.w3.org/2000/svg" width="278.456" height="219" viewBox="0 0 278.456 219"><defs><style>.a{fill:#f2f2f2;}.b{fill:#3f3d56;}.c{fill:#bb293d;}.d{fill:#2f2e41;}.e{fill:#9f616a;}.f{fill:#d0cde1;}.g{opacity:0.1;}.h,.i{fill:none;stroke-miterlimit:10;}.h{stroke:#bb293d;stroke-width:4px;}.i{stroke:#3f3d56;stroke-width:2px;}</style></defs><g transform="translate(0)"><path class="a" d="M197.9,249.137l-33,27.367a14.945,14.945,0,1,1-22.982,19.059L112.334,320.1l47.424,57.186,85.566-70.961Z" transform="translate(-107.29 -195.169)"/><path class="a" d="M869.543,347.95c0,33.8-20.093,45.6-44.88,45.6s-44.88-11.8-44.88-45.6,44.88-76.8,44.88-76.8S869.543,314.15,869.543,347.95Z" transform="translate(-591.087 -211.126)"/><path class="b" d="M795.432,335.38l.459-28.287,19.129-35-19.057,30.558.207-12.719,13.184-25.319L796.225,286.57h0l.371-22.876,14.117-20.157L796.655,260.1l.232-41.946-1.459,55.53.12-2.291-14.353-21.97,14.123,26.367-1.338,25.549-.04-.678-16.547-23.12,16.5,25.516-.167,3.2-.03.048.014.262-3.393,64.819h4.533l.544-33.48,16.456-25.453Z" transform="translate(-563.491 -158.126)"/><ellipse class="b" cx="62.5" cy="5" rx="62.5" ry="5" transform="translate(132 209)"/><rect class="b" width="9" height="215" transform="translate(191)"/><path class="c" d="M965.22,765.106c0,6.182-3.675,8.341-8.209,8.341q-.158,0-.315,0c-.21,0-.418-.015-.624-.029-4.092-.29-7.271-2.559-7.271-8.309,0-5.95,7.6-13.458,8.175-14.014h0l.033-.032S965.22,758.924,965.22,765.106Z" transform="translate(-713.6 -558.985)"/><path class="b" d="M968.86,772.5l3-4.2-3.01,4.656-.008.482c-.21,0-.418-.015-.624-.029l.324-6.185,0-.048.006-.009.031-.584-3.017-4.667,3.027,4.229.007.124.245-4.673-2.583-4.823,2.615,4,.255-9.689v0l-.043,7.64,2.572-3.029-2.582,3.687-.068,4.184,2.4-4.016L969,764.189l-.038,2.326,3.486-5.589-3.5,6.4Z" transform="translate(-725.747 -558.985)"/><path class="d" d="M737.34,781.853l-1.756-1.3s-1.162,6.493.135,7.466,6.161,2.594,6.161,4.54,11.025,4.54,11.349,1.621a6.43,6.43,0,0,0-.973-4.54s-5.188-5.188-5.837-6.161-2.27-2.918-2.27-2.918Z" transform="translate(-558.702 -580.361)"/><path class="d" d="M762.491,482.457s-.049.285-.133.807c-.078.464-.185,1.119-.315,1.926-1.362,8.311-5.334,32.776-5.065,33.583.324.973,2.594,4.54,0,5.512a2.012,2.012,0,0,0-.807.879A18.854,18.854,0,0,0,754.8,528.4a142.207,142.207,0,0,0-4.157,16.644c-.418,2.186-.7,3.943-.788,4.864a2.642,2.642,0,0,0-.01.642c.324,1.3-1.946,5.837-2.918,7.134s-2.594,2.594-2.27,3.891-8.107,4.864-9.079,2.594a41.379,41.379,0,0,1-1.3-4.215c-.324-.649-.648-5.188.973-5.837s.648-12,2.27-14.267a31.157,31.157,0,0,0,2.234-6.391c.34-1.206.684-2.49,1.021-3.778,1.368-5.276,2.581-10.584,2.581-10.584l-.324-37.938,17.834-2.27.457,1.008.911,2Z" transform="translate(-557.913 -361.704)"/><path class="d" d="M831.643,715.081s2.594-2.594,3.891,0S838.128,727.727,840.4,730s5.188,13.619,1.946,14.267-6.809-.973-7.134-2.918-7.134-12-7.134-12.97,4.54-4.54,4.54-4.54Z" transform="translate(-626.092 -532.071)"/><path class="d" d="M696.088,424.692s4.215,37.938,5.188,41.505,6.161,17.186,7.782,19.456,12,20.753,13.295,21.725,3.891,3.567,3.891,3.567,4.864,4.864,5.512,5.837,6.161-1.946,6.485-3.891a19.992,19.992,0,0,0-.648-6.485c-.324-1.3.648-3.243-.324-4.215s-5.837-5.837-5.837-8.106S723,478.519,719.759,475.6s-2.594-7.782-2.594-7.782v-19.78L735,442.526s-.973-15.564-3.243-15.564S699.655,421.774,696.088,424.692Z" transform="translate(-530.421 -321.774)"/><circle class="e" cx="10.701" cy="10.701" r="10.701" transform="translate(181.231 27.366)"/><path class="e" d="M770.144,207.442s-1.3,4.864-2.918,6.161,4.215,6.809,4.215,6.809l11.025.649,1.946-6.161s-3.567-7.134-2.594-11.673S770.144,207.442,770.144,207.442Z" transform="translate(-581.779 -160.944)"/><path class="b" d="M716.673,242.02s2.918.324,3.567,1.3,5.188,3.891,8.755,3.243,5.837-1.621,6.485-1.3,1.946,7.134,1.946,7.134l-3.567,10.376.649,28.535.973,7.782s1.946-2.594-5.837-.973-17.834-1.3-21.077-1.621-8.755-1.3-9.079-3.243.973-9.079.973-9.079l5.188-21.725,3.243-11.673Z" transform="translate(-532.847 -190.01)"/><path class="f" d="M702.821,234.868s-2.743-1.455-3.716-.158-13.295,3.243-13.295,4.215-2.594,27.238-1.945,29.508-1.3,4.864-1.3,4.864l-2.27,9.728s-6.161,18.483-3.567,19.131,4.864,0,5.837,0,.648-12.322,3.243-15.564,6.161-11.349,6.809-12.97,8.755-24,8.431-26.589S702.821,234.868,702.821,234.868Z" transform="translate(-515.929 -184.321)"/><path class="f" d="M803.909,242.02s2.594,0,2.918.649a35.488,35.488,0,0,0,4.864,5.837c1.3.973,5.837,5.188,5.837,6.161s-9.4,8.106-9.4,8.106-3.891,19.131-1.946,25.616,4.864,22.05,3.567,23.022-4.215,1.3-4.215,0-1.946-15.24-3.567-18.158-6.485-21.4-4.54-26.589S803.909,242.02,803.909,242.02Z" transform="translate(-603.546 -190.01)"/><path class="e" d="M666.607,358.687s-.324,10.052,3.243,15.24a61.627,61.627,0,0,1,5.837,11.025s5.837-1.621,6.809-3.567,7.134-.324,7.134-.973-7.458-3.891-8.107-4.539-2.918-.649-4.215-1.946-1.621-4.215-1.621-4.215l-1.3-8.431Z" transform="translate(-509.046 -274.576)"/><path class="d" d="M754.385,141.006a6.167,6.167,0,0,1-2.4-.549,3.213,3.213,0,0,1-.821-4.758,6.147,6.147,0,0,1,1.14-.917l2.465-1.678a12.056,12.056,0,0,1,3.477-1.846,10.855,10.855,0,0,1,3.555-.21,24.02,24.02,0,0,1,6.81,1.238,11.4,11.4,0,0,1,5.518,4.037c2.087,3.02,2.116,7.092.966,10.578s-3.333,6.522-5.484,9.5l-1.116-5.447a2.01,2.01,0,0,0-.632-1.3c-1-.714-2.229.752-3.46.742A2.073,2.073,0,0,1,762.648,149a7.909,7.909,0,0,1-.389-2.33c-.147-1.669-.73-3.99-2.31-4.911C758.477,140.9,756.04,141.157,754.385,141.006Z" transform="translate(-569.823 -109.538)"/><path class="g" d="M766.94,492.542s1.1,31.678,1.744,32.651,0-32.75,0-32.75Z" transform="translate(-581.778 -371.528)"/><path class="f" d="M675.084,251.447H672.49s-11.025,14.916-9.728,15.889,0,3.567,0,3.567l-2.594,4.864s-3.243,2.918-2.27,3.567,2.27,3.243,2.27,3.243,6.485-.973,8.431,2.918l4.206-5.309Z" transform="translate(-502.607 -196.844)"/><path class="e" d="M722.172,306.062s-7.134.324-15.24-4.864l-8.106-3.567s-7.134-11.025-7.782-9.079.973,5.837.973,5.837-9.783,4.528-10.037,5.126,5.5-.911,5.5-.911-.973,6.161,4.54,6.485,7.134-.973,7.134-.973,23.347,19.456,27.238,13.295S722.172,306.062,722.172,306.062Z" transform="translate(-520.188 -223.572)"/><path class="f" d="M832.126,283.266l3.567,1.3v9.728l1.3,1.946s-.324,3.891-1.3,4.864-2.918.649-2.27,2.918a12.289,12.289,0,0,1,.324,4.54s-5.837,7.458-6.161,6.485-4.864-12.97-5.512-12.97,6.485-18.807,6.485-18.807Z" transform="translate(-621.711 -219.907)"/><path class="d" d="M698.1,446.943s-3.353-3.243-1.676-3.4,7.513-3.4,8.486-1.783S698.1,446.943,698.1,446.943Z" transform="translate(-530.321 -334.46)"/><path class="b" d="M210.587,557.928a62.735,62.735,0,1,0-107.7,0Z" transform="translate(-94 -350.187)"/><circle class="c" cx="6" cy="6" r="6" transform="translate(57 165)"/><ellipse class="c" cx="2.5" cy="3.5" rx="2.5" ry="3.5" transform="translate(12 178)"/><circle class="c" cx="3.027" cy="3.027" r="3.027" transform="translate(13.332 152.085)"/><circle class="c" cx="3.027" cy="3.027" r="3.027" transform="translate(28.356 130.529)"/><circle class="c" cx="3.027" cy="3.027" r="3.027" transform="translate(52.336 119.79)"/><circle class="c" cx="3.027" cy="3.027" r="3.027" transform="translate(78.422 122.935)"/><circle class="c" cx="3.027" cy="3.027" r="3.027" transform="translate(99.163 139.067)"/><circle class="c" cx="3.027" cy="3.027" r="3.027" transform="translate(108.632 163.576)"/><circle class="c" cx="3.027" cy="3.027" r="3.027" transform="translate(104.126 189.462)"/><line class="h" y1="23" x2="31" transform="translate(63 148)"/><circle class="i" cx="4.06" cy="4.06" r="4.06" transform="translate(87.44 50.517)"/><circle class="b" cx="4.06" cy="4.06" r="4.06" transform="translate(110.553 97.844)"/><circle class="a" cx="11.77" cy="11.77" r="11.77" transform="translate(34.517 79.351)"/></g></svg>