<svg xmlns="http://www.w3.org/2000/svg" width="321.61" height="210.592" viewBox="0 0 321.61 210.592"><defs><style>.a{fill:#e6e6e6;}.b{fill:#9f616a;}.c{fill:#2f2e41;}.d{fill:#bb293d;}.e{fill:#fff;}</style></defs><g transform="translate(0 0)"><ellipse class="a" cx="46.084" cy="3.515" rx="46.084" ry="3.515" transform="translate(0 203.562)"/><path class="b" d="M315.777,287.589l-18.385-5.014q7.364-6.949,6.407-13.092h11.978Z" transform="translate(-254.768 -234.686)"/><path class="c" d="M113.393,368.136l-5.939.835-7.154-65.74L88.879,368.693l-6.128.278V285.961h37.884Z" transform="translate(-50.433 -174.282)"/><path class="c" d="M272.566,686.467h0a4.177,4.177,0,0,0,4.142-3.052l.434-6.473-.874-4.591c-2.307-1.9-4.64-1.857-7,0l-.751,9.616a4.177,4.177,0,0,0,4.045,4.5Z" transform="translate(-237.164 -479.36)"/><path class="c" d="M335.334,686.467h0a4.177,4.177,0,0,0,4.142-3.052l.434-6.473-.874-4.591c-2.307-1.9-4.64-1.857-7,0l-.751,9.616a4.177,4.177,0,0,0,4.045,4.5Z" transform="translate(-275.419 -479.36)"/><circle class="b" cx="10.585" cy="10.585" r="10.585" transform="translate(47.917 22.261)"/><path class="a" d="M309.253,362.537H268.861c5.235-24.262,5.22-43.8,1.05-59.605a4.223,4.223,0,0,1,2.568-5.02l10.867-4.179c3.262,4.213,7.866,6.053,15.042,3.343l5.694,1.168a5.851,5.851,0,0,1,4.67,6.118c-.419,6.181-.254,12.408-.614,17.784C307.021,338.794,306.539,351.773,309.253,362.537Z" transform="translate(-237.379 -249.465)"/><path class="c" d="M313.19,223.864s6.128-6.964,13.371-.279l1.95.557-1.393,1.114s7.243,3.343,6.685,10.307a3.193,3.193,0,0,0-1.671,0c-.557.279-.836,3.343-.836,3.343a17.584,17.584,0,0,0-1.114-2.507c-.279-.279-4.178,3.064-10.585-1.95,0,0-1.95,5.014-4.178,4.457s-5.293-.279-6.685,3.343C308.733,242.249,301.212,226.093,313.19,223.864Z" transform="translate(-260.259 -204.946)"/><path class="b" d="M370.243,392.49l-3.576,4.793a4.7,4.7,0,0,0,1.013,6.616h0a4.7,4.7,0,0,0,7.389-3.065l1.023-6.394,1.95-27.578-1.393-13.928-8.914,3.343,2.507,11.978Z" transform="translate(-296.42 -285.546)"/><path class="a" d="M362.789,330.494l10.864-5.014-.557-3.947a16.2,16.2,0,0,0-10.345-15.107l-3.3-1.281Z" transform="translate(-292.588 -256.421)"/><path class="b" d="M254.55,389.637l3.576,4.793a4.7,4.7,0,0,1-1.013,6.616h0a4.7,4.7,0,0,1-7.389-3.065l-1.023-6.394-1.95-27.578,1.393-13.928,8.914,3.343L254.55,365.4Z" transform="translate(-223.903 -283.808)"/><path class="a" d="M259.04,327.641l-10.864-5.014.557-3.947a16.2,16.2,0,0,1,10.345-15.107l3.3-1.281Z" transform="translate(-224.773 -254.682)"/><path class="a" d="M709.576,504.816h-185.9a2.932,2.932,0,0,1-2.929-2.929V421.045a2.932,2.932,0,0,1,2.929-2.929h185.9a2.932,2.932,0,0,1,2.929,2.929v80.842A2.932,2.932,0,0,1,709.576,504.816Zm-185.9-85.528a1.759,1.759,0,0,0-1.757,1.757v80.842a1.759,1.759,0,0,0,1.757,1.757h185.9a1.759,1.759,0,0,0,1.757-1.757V421.045a1.759,1.759,0,0,0-1.757-1.757Z" transform="translate(-390.895 -325.272)"/><path class="a" d="M545.007,443.616a1.757,1.757,0,0,0,0,3.515h24.6a1.757,1.757,0,1,0,0-3.515Z" transform="translate(-404.608 -340.813)"/><path class="a" d="M720.123,473.816v32.591H554.21v-17.16c1.149-.738,2.3-1.472,3.471-2.182,4.981-3.048,10.312-5.9,16.123-6.955a24.339,24.339,0,0,1,8.323-.1A47.5,47.5,0,0,1,590.6,482.5a57.847,57.847,0,0,0,8.306,2.6,24.319,24.319,0,0,0,8.424.166c5.335-.8,10.347-2.944,15.338-4.884,5.023-1.95,10.2-3.793,15.633-4.035,5.366-.242,10.666,1.025,15.758,2.6,10.382,3.2,20.982,7.956,31.975,4.7,11.163-3.3,21.43-12.844,33.8-10.014A.466.466,0,0,1,720.123,473.816Z" transform="translate(-411.288 -358.792)"/><path class="d" d="M719.937,474.385a.5.5,0,0,1-.568.249,18.5,18.5,0,0,0-4.5-.464c-12.168.215-21.524,10.01-33.422,11.475-10.727,1.32-20.824-3.9-30.91-6.623-5.241-1.417-10.644-2.168-16.037-1.205-5.351.952-10.374,3.142-15.417,5.085-4.856,1.87-9.9,3.609-15.161,3.7-5.781.1-10.987-2.286-16.349-4.1a29.112,29.112,0,0,0-8.6-1.767,26.029,26.029,0,0,0-8.479,1.313c-5.7,1.812-10.831,5.04-15.829,8.247a.444.444,0,0,1-.294.08.537.537,0,0,1-.229-.977l.229-.146c1.147-.738,2.3-1.472,3.464-2.182,4.97-3.048,10.291-5.9,16.089-6.955a24.238,24.238,0,0,1,8.306-.1,47.331,47.331,0,0,1,8.452,2.494,57.633,57.633,0,0,0,8.289,2.6,24.218,24.218,0,0,0,8.407.166c5.324-.8,10.325-2.944,15.306-4.884,5.012-1.95,10.177-3.793,15.6-4.035,5.355-.242,10.644,1.025,15.725,2.6,10.36,3.2,20.938,7.956,31.908,4.7,11.139-3.3,21.385-12.844,33.73-10.014a.465.465,0,0,1,.291.184A.534.534,0,0,1,719.937,474.385Z" transform="translate(-411.102 -358.792)"/><circle class="d" cx="2.425" cy="2.425" r="2.425" transform="translate(163.358 119.213)"/><circle class="d" cx="2.425" cy="2.425" r="2.425" transform="translate(224.666 116.095)"/><circle class="d" cx="2.425" cy="2.425" r="2.425" transform="translate(299.483 112.978)"/><path class="a" d="M606.507,593.616a1.757,1.757,0,0,0,0,3.515h24.6a1.757,1.757,0,0,0,0-3.515Z" transform="translate(-442.09 -432.232)"/><circle class="d" cx="6.639" cy="6.639" r="6.639" transform="translate(141.961 156.307)"/><path class="a" d="M758.507,593.616a1.757,1.757,0,0,0,0,3.515h24.6a1.757,1.757,0,1,0,0-3.515Z" transform="translate(-534.728 -432.232)"/><circle class="d" cx="6.639" cy="6.639" r="6.639" transform="translate(201.323 156.307)"/><path class="a" d="M910.507,593.616a1.757,1.757,0,0,0,0,3.515h24.6a1.757,1.757,0,1,0,0-3.515Z" transform="translate(-627.366 -432.232)"/><circle class="d" cx="6.639" cy="6.639" r="6.639" transform="translate(260.685 156.307)"/><path class="a" d="M823.49,323.926H731.777c-1.788,0-3.237-1.032-3.239-2.3V301.688c0-1.272,1.451-2.3,3.239-2.3H823.49c1.788,0,3.237,1.032,3.239,2.3v19.934C826.727,322.894,825.278,323.925,823.49,323.926ZM731.777,300.3c-1.073,0-1.942.619-1.943,1.383v19.934c0,.763.87,1.382,1.943,1.383H823.49c1.073,0,1.942-.619,1.943-1.383V301.688c0-.763-.87-1.382-1.943-1.383Z" transform="translate(-517.534 -252.91)"/><path class="d" d="M786.882,328.391a1.955,1.955,0,0,0-1.953,1.953v13.669a1.955,1.955,0,0,0,1.953,1.953h69.907a1.955,1.955,0,0,0,1.953-1.953V330.344a1.955,1.955,0,0,0-1.953-1.953Z" transform="translate(-551.902 -270.588)"/><circle class="e" cx="4.296" cy="4.296" r="4.296" transform="translate(240.447 62.489)"/><path class="e" d="M862.318,346.616a1.757,1.757,0,0,0,0,3.515h24.6a1.757,1.757,0,0,0,0-3.515Z" transform="translate(-597.997 -281.695)"/><path class="a" d="M647.49,204.926H555.777c-1.788,0-3.237-1.032-3.239-2.3V182.688c0-1.272,1.451-2.3,3.239-2.3H647.49c1.788,0,3.237,1.032,3.239,2.3v19.934C650.727,203.894,649.278,204.925,647.49,204.926ZM555.777,181.3c-1.073,0-1.942.619-1.943,1.383v19.934c0,.763.871,1.382,1.943,1.383H647.49c1.073,0,1.942-.619,1.943-1.383V182.688c0-.763-.871-1.382-1.943-1.383Z" transform="translate(-410.269 -180.384)"/><path class="d" d="M610.882,209.391a1.955,1.955,0,0,0-1.953,1.953v13.669a1.955,1.955,0,0,0,1.953,1.953h69.907a1.955,1.955,0,0,0,1.953-1.953V211.344a1.955,1.955,0,0,0-1.953-1.953Z" transform="translate(-444.637 -198.062)"/><circle class="e" cx="4.296" cy="4.296" r="4.296" transform="translate(171.712 16.015)"/><path class="e" d="M686.318,227.616a1.757,1.757,0,1,0,0,3.515h24.6a1.757,1.757,0,0,0,0-3.515Z" transform="translate(-490.732 -209.17)"/></g></svg>